# Alias OBJ Model File
# Exported from SketchUp, (c) 2000-2012 Trimble Navigation Limited
# File units = meters

mtllib plan.mtl

g Mesh1 Group1 Model

usemtl FrontColor
v 4.44089e-16 1.0259e-29 -133
vt 98.4252 5137.8
vn 0 -1 -0
v 245 1.0259e-29 -133
vt -9547.24 5137.8
v 245 1.0259e-29 -0
vt -9547.24 -98.4252
v 4.44089e-16 1.0259e-29 -0
vt 98.4252 -98.4252
f 1/1/1 2/2/1 3/3/1 4/4/1 

vt -9547.24 -3632.97
vn 0 0.707107 -0.707107
vt 98.4252 -3632.97
v 2.5 2.5 -130.5
vt 0 -3493.78
v 242.5 2.5 -130.5
vt -9448.82 -3493.78
f 2/5/2 1/6/2 5/7/2 6/8/2 

vt -5137.8 -69.5971
vn -0.707107 0.707107 -0
vt 98.4252 -69.5971
v 2.5 2.5 -2.5
vt 0 69.5971
vt -5039.37 69.5971
f 1/9/3 4/10/3 7/11/3 5/12/3 

vt -98.4252 -69.5971
vn 0 0.707107 0.707107
vt 9547.24 -69.5971
v 242.5 2.5 -2.5
vt 9448.82 69.5971
f 4/13/4 3/14/4 8/15/4 7/11/4 

vt -98.4252 -6750.92
vn 0.707107 0.707107 -0
vt 5137.8 -6750.92
vt 5039.37 -6611.73
vt 0 -6611.73
f 3/16/5 2/17/5 6/18/5 8/19/5 

usemtl Zigzag_Symbol
vt 1 1
vn 0 1 -0
vt 0 1
vt 0 0
vt 1 0
f 6/20/6 5/21/6 7/22/6 8/23/6 

g Mesh2 Group2 Model

usemtl FrontColor
v 255 -5.56858e-19 -133
vn -0.707107 0.707107 -8.85997e-32
v 255 1.0259e-29 -0
v 257.5 2.5 -2.5
vt -7.00649e-46 69.5971
v 257.5 2.5 -130.5
f 9/9/7 10/10/7 11/24/7 12/12/7 

vn -2.32082e-20 -1 4.1869e-21
v 381.39 -3.49014e-18 -133
vt -4877.56 5137.8
v 381.39 -2.93328e-18 -0
vt -4877.56 -98.4252
f 9/1/8 13/25/8 14/26/8 10/4/8 

vn 4.32338e-19 0.707107 -0.707107
vt 3.08116e-15 -3493.78
v 378.89 2.5 -130.5
vt -4779.13 -3493.78
vt -4877.56 -3632.97
f 9/6/9 12/27/9 15/28/9 13/29/9 

usemtl Herringbone_2x1
v 378.89 2.5 -2.5
vt 1.00493 0
vt 1.00493 1
f 11/22/6 16/30/6 15/31/6 12/21/6 

usemtl FrontColor
vn -4.32338e-19 0.707107 0.707107
vt 4877.56 -69.5971
vt 4779.13 69.5971
f 10/13/10 14/32/10 16/33/10 11/11/10 

vt 0 -3309.76
vt -98.4252 -3448.96
vt 5137.8 -3448.96
vt 5039.37 -3309.76
f 16/34/5 14/35/5 13/36/5 15/37/5 

